<svg xmlns="http://www.w3.org/2000/svg" version="1.1" xmlns:xlink="http://www.w3.org/1999/xlink" xmlns:svgjs="http://svgjs.com/svgjs" width="1000" height="1000"><rect width="1000" height="1000" rx="500" ry="500" fill="#8f8f8f"></rect><g transform="matrix(2,0,0,2,-20.64763641357422,31.02368927001953)"><svg xmlns="http://www.w3.org/2000/svg" version="1.1" xmlns:xlink="http://www.w3.org/1999/xlink" xmlns:svgjs="http://svgjs.com/svgjs" width="500" height="500"><svg xmlns="http://www.w3.org/2000/svg" viewBox="0 0 500 500"><g id="freepik--Calculator--inject-61"><path d="M362.94,123.05a8.34,8.34,0,0,0-8.42-9H216.09a9.78,9.78,0,0,0-9.61,9L203.3,171,183.37,318.41a7.69,7.69,0,0,0,7.79,9H329.6a10.64,10.64,0,0,0,10.23-9L359.76,171Z" style="fill:#FF6B00"></path><path d="M362.94,123.05a8.34,8.34,0,0,0-8.42-9H216.09a9.78,9.78,0,0,0-9.61,9L203.3,171,183.37,318.41a7.69,7.69,0,0,0,7.79,9H329.6a10.64,10.64,0,0,0,10.23-9L359.76,171Z" style="opacity:0.2"></path><path d="M324.67,327.42H186.23a7.7,7.7,0,0,1-7.79-9L198.37,171H354.83L334.9,318.41A10.64,10.64,0,0,1,324.67,327.42Z" style="fill:#FF6B00"></path><rect x="216.05" y="110.53" width="20.62" height="1" style="fill:#FF6B00"></rect><path d="M206.3,112.6l-.42-.91a12.64,12.64,0,0,1,5.28-1.16v1A11.61,11.61,0,0,0,206.3,112.6Z" style="fill:#FF6B00"></path><path d="M349.6,114H211.16a9.78,9.78,0,0,0-9.61,9L198.37,171H354.83L358,123.05A8.33,8.33,0,0,0,349.6,114Z" style="fill:#FF6B00"></path><path d="M206.1,159.26l2.22-33.53a5.15,5.15,0,0,1,5.06-4.74H346.45a4.38,4.38,0,0,1,4.43,4.74l-2.22,33.53A5.16,5.16,0,0,1,343.6,164H210.53A4.39,4.39,0,0,1,206.1,159.26Z" style="fill:#fff;opacity:0.9"></path><g style="opacity:0.4"><path d="M336.86,126.48l-1.51,1.41a.39.39,0,0,1-.28.11h-8a.39.39,0,0,1-.3-.13l-1.3-1.4a.41.41,0,0,1,.3-.69h10.83A.4.4,0,0,1,336.86,126.48Z" style="fill:#FF6B00"></path><path d="M334.74,152.47H323.91a.41.41,0,0,1-.28-.71l1.5-1.4a.43.43,0,0,1,.28-.11h8a.37.37,0,0,1,.3.14l1.31,1.4A.41.41,0,0,1,334.74,152.47Z" style="fill:#FF6B00"></path><path d="M335.79,139.4l-.77.73a.43.43,0,0,1-.28.11h-9.39a.41.41,0,0,1-.4-.44l.1-1.41a.41.41,0,0,1,.41-.38h9.42a.4.4,0,0,1,.3.13l.64.69A.4.4,0,0,1,335.79,139.4Z" style="fill:#FF6B00"></path><path d="M337.07,140.17,336.28,151a.41.41,0,0,1-.71.24l-1.29-1.4a.41.41,0,0,1-.11-.31l.59-8.05a.37.37,0,0,1,.13-.27l1.5-1.4A.41.41,0,0,1,337.07,140.17Z" style="fill:#FF6B00"></path><path d="M338,127.32l-.79,10.86a.41.41,0,0,1-.71.25l-1.3-1.41a.41.41,0,0,1-.1-.3l.58-8.05a.43.43,0,0,1,.13-.27l1.5-1.41A.41.41,0,0,1,338,127.32Z" style="fill:#FF6B00"></path></g><path d="M319.52,157h0a1.52,1.52,0,0,1,1.48-1.39h17a1.44,1.44,0,0,1,1.45,1.54h0a1.52,1.52,0,0,1-1.49,1.39H321A1.42,1.42,0,0,1,319.52,157Z" style="fill:#FF6B00;opacity:0.4"></path><path d="M298.26,157h0a1.52,1.52,0,0,1,1.48-1.39h17a1.44,1.44,0,0,1,1.45,1.54h0a1.52,1.52,0,0,1-1.49,1.39h-17A1.42,1.42,0,0,1,298.26,157Z" style="fill:#FF6B00;opacity:0.4"></path><path d="M277,157h0a1.52,1.52,0,0,1,1.48-1.39h17a1.44,1.44,0,0,1,1.44,1.54h0a1.51,1.51,0,0,1-1.49,1.39h-17A1.42,1.42,0,0,1,277,157Z" style="fill:#FF6B00;opacity:0.4"></path><path d="M255.74,157h0a1.52,1.52,0,0,1,1.48-1.39h17a1.44,1.44,0,0,1,1.44,1.54h0a1.51,1.51,0,0,1-1.49,1.39h-17A1.42,1.42,0,0,1,255.74,157Z" style="fill:#FF6B00;opacity:0.4"></path><path d="M208.79,239.37l6.26-46.27a6.55,6.55,0,0,1,6.3-5.55h46.27a4.74,4.74,0,0,1,4.8,5.55l-6.26,46.27a6.54,6.54,0,0,1-6.29,5.55H213.59A4.74,4.74,0,0,1,208.79,239.37Z" style="fill:#263238;opacity:0.1"></path><path d="M274.71,239.37,281,193.1a6.55,6.55,0,0,1,6.3-5.55h46.27a4.73,4.73,0,0,1,4.8,5.55l-6.25,46.27a6.56,6.56,0,0,1-6.3,5.55H279.5A4.73,4.73,0,0,1,274.71,239.37Z" style="fill:#263238;opacity:0.1"></path><path d="M199.88,305.29,206.14,259a6.56,6.56,0,0,1,6.3-5.55h46.27a4.74,4.74,0,0,1,4.8,5.55l-6.26,46.28a6.54,6.54,0,0,1-6.29,5.54H204.68A4.74,4.74,0,0,1,199.88,305.29Z" style="fill:#263238;opacity:0.1"></path><path d="M265.8,305.29,272.05,259a6.56,6.56,0,0,1,6.3-5.55h46.27a4.74,4.74,0,0,1,4.8,5.55l-6.25,46.28a6.56,6.56,0,0,1-6.3,5.54H270.59A4.73,4.73,0,0,1,265.8,305.29Z" style="fill:#263238;opacity:0.1"></path><path d="M205.71,239.37,212,193.1a6.55,6.55,0,0,1,6.3-5.55h46.27a4.74,4.74,0,0,1,4.8,5.55l-6.26,46.27a6.54,6.54,0,0,1-6.29,5.55H210.51A4.74,4.74,0,0,1,205.71,239.37Z" style="fill:#FF6B00"></path><path d="M205.71,239.37,212,193.1a6.55,6.55,0,0,1,6.3-5.55h46.27a4.74,4.74,0,0,1,4.8,5.55l-6.26,46.27a6.54,6.54,0,0,1-6.29,5.55H210.51A4.74,4.74,0,0,1,205.71,239.37Z" style="fill:#fff;opacity:0.2"></path><path d="M271.63,239.37l6.25-46.27a6.55,6.55,0,0,1,6.3-5.55h46.27a4.73,4.73,0,0,1,4.8,5.55L329,239.37a6.56,6.56,0,0,1-6.3,5.55H276.42A4.73,4.73,0,0,1,271.63,239.37Z" style="fill:#FF6B00"></path><path d="M271.63,239.37l6.25-46.27a6.55,6.55,0,0,1,6.3-5.55h46.27a4.73,4.73,0,0,1,4.8,5.55L329,239.37a6.56,6.56,0,0,1-6.3,5.55H276.42A4.73,4.73,0,0,1,271.63,239.37Z" style="fill:#fff;opacity:0.2"></path><path d="M196.8,305.29,203.06,259a6.56,6.56,0,0,1,6.3-5.55h46.27a4.74,4.74,0,0,1,4.8,5.55l-6.26,46.28a6.54,6.54,0,0,1-6.29,5.54H201.6A4.74,4.74,0,0,1,196.8,305.29Z" style="fill:#FF6B00"></path><path d="M196.8,305.29,203.06,259a6.56,6.56,0,0,1,6.3-5.55h46.27a4.74,4.74,0,0,1,4.8,5.55l-6.26,46.28a6.54,6.54,0,0,1-6.29,5.54H201.6A4.74,4.74,0,0,1,196.8,305.29Z" style="fill:#fff;opacity:0.2"></path><path d="M262.72,305.29,269,259a6.56,6.56,0,0,1,6.3-5.55h46.27a4.74,4.74,0,0,1,4.8,5.55l-6.25,46.28a6.56,6.56,0,0,1-6.3,5.54H267.51A4.73,4.73,0,0,1,262.72,305.29Z" style="fill:#FF6B00"></path><path d="M262.72,305.29,269,259a6.56,6.56,0,0,1,6.3-5.55h46.27a4.74,4.74,0,0,1,4.8,5.55l-6.25,46.28a6.56,6.56,0,0,1-6.3,5.54H267.51A4.73,4.73,0,0,1,262.72,305.29Z" style="fill:#fff;opacity:0.2"></path><path d="M234.92,235.49h0a4.76,4.76,0,0,1-4.8-5.55l3.71-27.4a6.58,6.58,0,0,1,6.3-5.56h0a4.75,4.75,0,0,1,4.8,5.56l-3.7,27.4A6.58,6.58,0,0,1,234.92,235.49Z" style="fill:#fff"></path><path d="M218.27,216.24h0a6.59,6.59,0,0,1,6.31-5.56H252a4.76,4.76,0,0,1,4.8,5.56h0a6.58,6.58,0,0,1-6.3,5.55h-27.4A4.76,4.76,0,0,1,218.27,216.24Z" style="fill:#fff"></path><path d="M213.16,295.76h0c-1.87-2.16-1.39-5.69,1.06-7.85l22-19.38c2.45-2.16,6-2.16,7.85,0h0c1.87,2.16,1.39,5.7-1.06,7.86l-22,19.37C218.56,297.92,215,297.92,213.16,295.76Z" style="fill:#fff"></path><path d="M216.84,268.53h0c2.45-2.16,6-2.16,7.86,0l16.75,19.38c1.87,2.16,1.39,5.69-1.06,7.85h0c-2.45,2.16-6,2.16-7.85,0l-16.76-19.37C213.91,274.23,214.39,270.69,216.84,268.53Z" style="fill:#fff"></path><path d="M284.18,216.24h0a6.59,6.59,0,0,1,6.31-5.56h27.4a4.75,4.75,0,0,1,4.8,5.56h0a6.58,6.58,0,0,1-6.3,5.55H289A4.76,4.76,0,0,1,284.18,216.24Z" style="fill:#fff"></path><path d="M276.44,273.51h0a6.58,6.58,0,0,1,6.31-5.55h27.4a4.76,4.76,0,0,1,4.8,5.55h0a6.58,6.58,0,0,1-6.3,5.56H281.24A4.76,4.76,0,0,1,276.44,273.51Z" style="fill:#fff"></path><path d="M274.11,290.78h0a6.58,6.58,0,0,1,6.3-5.55h27.4a4.76,4.76,0,0,1,4.81,5.55h0a6.59,6.59,0,0,1-6.31,5.56h-27.4A4.75,4.75,0,0,1,274.11,290.78Z" style="fill:#fff"></path></g></svg></svg></g></svg>